<svg version="1.1" id="Layer_1" xmlns="http://www.w3.org/2000/svg" x="0" y="0" viewBox="0 0 100 74" style="enable-background:new 0 0 100 74" xml:space="preserve"><style>.st0{fill:#848484}</style><path class="st0" d="M50 74c-20.4 0-37-16.6-37-37S29.6 0 50 0s37 16.6 37 37-16.6 37-37 37zm0-72.1C30.7 1.9 14.9 17.7 14.9 37S30.7 72.1 50 72.1 85.1 56.3 85.1 37 69.3 1.9 50 1.9z"/><path class="st0" d="M38 25.3s2.5-1.1 3.5-2.2c.4 1.2 1.2 3.7 2.2 4.7-.8.2-2.2 1.1-2.7 1.7-.5-1.4-1.7-3.4-3-4.2zM52 18c-1.5-.1-2.5 0-4.4.5-.2-3.4-2.4-6.4-2.4-6.4.2-.1 3.6-1.4 5.7-1.1.9 1.3 1.1 5.1 1.1 7zm2.1 41.1c.3.3.7.6 1.4.8H44.2c1.1-.5 2.1-1.1 2.2-1.7.2-1.2.7-4 0-6.6-.7-1.9-2.6-3.3-4.8-4.2-.5.1-1.4.4-2.2.9.5.5 1.1.8 1.2.9 0 0-2.2 1.6-2.8 2.9-.3-.4-1.6-1.7-2.1-1.9.2-.5 1.4-2.3 2.8-2.9.1.2.4.5.6.7.4-.4.9-.7 1.6-.9-2.3-.8-4.8-1.2-6.5-1.4v2.1c-3.5-.6-7.1.9-7.1.9 0-.2-.7-3.7.1-5.8 1.5-.6 5.4.1 7.4.5-.2.6-.3 1.1-.3 1.6 1.7-.3 3.2-.3 4.6-.2-.5-.7-1.5-1.7-3.1-2.5-1.6-.7-2.8-1.7-3.5-2.4-.7.3-1.4.7-1.8 1-.3-2.1-1.5-5.1-3-6.4 0 0 3.7-.9 5.2-2 .2 1.7.6 5.3 1.8 6.9-.5 0-1.3.2-2 .5.9.7 2.3 1.5 4.1 2-.2-.7-.1-1.4 0-1.8-.3 0-.5 0-.8.1-.1-.9-.2-2.6.1-3.2.9-.3 2.4.2 2.5.2 0 0-.8 1.5-.7 3-.4-.1-.7-.1-1-.1 0 .7.2 1.4.4 1.9 2 .4 3.3 2.1 3.9 3.1 1.2.2 2.3.6 3.3.9 0-.4-.1-1.2-.4-1.7-.2.1-.5.2-.8.3-.3-1.5-1.4-2.8-1.4-2.8.1 0 1.4-.8 2.4-.8.4.5.7 2.2.9 3.1-.3 0-.6.1-.9.1.3.4.6 1.2.8 1.9.8.3 1.4.6 2 .8.5-3.6-1.3-6.5-2.5-8.1-.8.6-1.6 1.3-1.9 1.6-.6-2.5-4.4-5.8-4.4-5.8-.1 0 2.9-1.6 3.9-2.8 2.3 1.3 4.1 4.8 4.4 5.8-.4.1-1.1.5-1.8 1 .5.4 1.2 1 1.9 1.8.3.4.6.8.9 1.3.4-.3.8-.8 1.2-1.4-.5-.2-1-.3-1.2-.4 1.1-1.2 1.5-4.1 1.5-4.1.1.1 1.9 1 2.8 1.1.1 1.6-1.1 3.7-1.5 4.1-.2-.2-.7-.4-1.2-.6-.2.7-.6 1.4-1.2 2.1.7 1.6 1.3 3.5 1.9 5.2 4.5-3.7 3.2-10.6 2.3-13.8-.6.4-1.2.9-2 1.6-1.9-3.5-5.7-5.6-5.7-5.6.1-.2 2.8-3.2 5.1-3.9 1.5.9 3.7 4.8 4.7 6.8-.6.3-1.1.5-1.7.8 1.1 1.5 1.9 3.4 2.3 5.4.6-.6 1.3-1.1 1.9-1.5-.2-.2-.5-.4-.6-.4.2-.5 1.4-2.3 2.8-2.9.5.8 2 1.8 2.1 1.8 0 0-2.2 1.6-2.8 2.9-.2-.2-.6-.7-1.1-1.1-1 1.3-1.7 2.9-2 3.8.1 1.6 0 3.2-.4 4.6 1-.6 2.5-1 4-1.3.2-1.5 1.4-2.7 2.5-3.4-.4-.5-.9-1-1.5-1.4 1.4-1.5 4.3-4.2 5.9-4.6 1.8 1.2 3.2 4.6 3.3 4.7 0 0-3.8.8-6.4 3.2-.4-.7-.7-1.2-1.1-1.6-1 1.2-1.3 2.4-1.4 2.9 1.9-.1 3.9 0 5.7.2.2-.9.2-1.7.2-2.1 1-.1 4.9 0 7.1 1.6-.7 1.4-.9 4.8-.9 5 0 0-4.6-2-7.1-1.5.2-.4.4-1.4.6-2.3-3.6-.1-5.9.4-7.7 1.4 1.2.1 2 .3 2.5.4.2-.4.3-.7.3-.9.6.1 2.6.7 3.5 1.9-.6.7-1.2 2.4-1.2 2.5 0 0-2.1-1.7-3.6-1.8.2-.2.5-.8.8-1.4-1-.2-2.3-.2-3.3-.1-.7.4-1.3.9-1.9 1.5-.8.7-1.3 1.5-1.7 2.5.3.4.5 1 .5 1.7 0 1.1-.5 2-1.1 2.3.2 1.3.7 2.7 1.5 3.5zM53 52.8c.1-.7-.2-1.2-.5-1.2s-.7.5-.7 1.1c-.1.7.2 1.2.5 1.2.3.1.6-.4.7-1.1zm-1-2.2c-.8.1-1.2 1.3-1 2.6.1-1.3.3-1.9.9-2.2.4-.3.1-.4.1-.4zm-7.4-25.8c-1.4-3.3-4.6-5.6-4.6-5.6.1-.1 2.8-2.6 5-3 1.3 1 2.9 4.7 3.6 6.6-.8.2-1.4.4-2.1.8.2.9.2 1.9 0 2.2 0-.7-.3-1.4-.5-1.9-.4.2-.9.5-1.4.9zM27.9 37.3c-.5.6-.6 3.3-.6 5.1-3-1.2-7.2-.8-7.2-.8.5-1.2.7-4.1.6-5.1 1.1.6 5.6.9 7.2.8zm11.2-6c-1.2.1-3.7.8-4.7 1.6-.2-2.3-2.4-5.6-3.5-7.3 2.2-.1 6.1-2.1 6.1-2.1-.4 2.2.8 5.7 2.1 7.8zm18.3-10.6c-1.6-.2-2.5-.2-3.6 0-.2-1.7-.4-4.9.1-6.2 1.7-.5 4.6.3 4.8.3-.1.1-1.6 2.9-1.3 5.9zM37 22.6s-2-3-3.8-3.6c.6-.4 2.3-2.1 2.5-2.8.7.3 3 1.9 3.7 3.7-1 .6-2.3 2.6-2.4 2.7zM60.9 31c2.3-1.2 4.6-5.6 4.6-5.6.1.1 2.3 2.7 3.8 3.3-.7 2.6-3.7 5.1-4.6 5.7-.2-.3-.7-.8-1.2-1.4-.8.9-1.8 2.3-2.1 3.7.3-1.6.9-3 1.7-4.1-.9-.7-1.8-1.4-2.2-1.6zm11 12.5c.2-.9-.9-3.7-1.8-5.6 3.7-.1 7.9-2.5 7.9-2.5 0 1.5 1.2 4.6 1.8 5.6-1.4-.2-6.2 1.6-7.9 2.5zm-3.8-10.4c2-1.3 4.6-3.8 5.2-5.9 0 0 2.5 3.4 4.4 4.4-1.7 1-5.1 3-6.2 4.9-.5-1.2-2.3-2.8-3.4-3.4zm-9.7-9.9c.8-1.5 2.3-5.7 2.2-6.9.9.6 3.6 1.5 4.9 1.5 0 0-2.1 3.7-2.2 6.9-1.6-.7-4.2-1.6-4.9-1.5zm-1.7 7.4c-.4 1.6-1.3 3.6-2.1 4.5.9-1.7 1.2-3.6 1.3-4.8-.7-.2-1.4-.4-1.9-.4 1.1-1.6 1.4-5.2 1.5-6.9 1.6 1.1 5.3 1.8 5.3 1.8-1.4 1.3-2.5 4.4-2.8 6.5-.2-.2-.7-.4-1.3-.7zM49.4 21c.9.1 2.8-.4 3.4-.7-.2.9.6 3.8 1 4.9-.5-.2-2.3.3-3.4.7.2-2.2-1-4.9-1-4.9zm23.5 1.1s-2.1 1.5-2.9 3.7c-1.1-.7-1.7-1-2.6-1.2.4-1.3 1.4-3.7 2.2-4.4 1.4.2 3.2 1.8 3.3 1.9zM28 31.6c-.7-1.9-3.9-4.1-3.9-4.1.1-.1 2.3-1.5 3-2.6 1.9.8 3.6 3.4 3.9 4.1-.7.2-2.5 2-3 2.6zm1.8 28.3h40.4V61H29.8z"/></svg>